<?xml version="1.0" encoding="utf-8"?>
<!-- Generator: Adobe Illustrator 16.0.0, SVG Export Plug-In . SVG Version: 6.00 Build 0)  -->
<!DOCTYPE svg PUBLIC "-//W3C//DTD SVG 1.1//EN" "http://www.w3.org/Graphics/SVG/1.1/DTD/svg11.dtd">
<svg version="1.1" xmlns="http://www.w3.org/2000/svg" xmlns:xlink="http://www.w3.org/1999/xlink" x="0px" y="0px" width="797px"
	 height="612px" viewBox="0 0 797 612" enable-background="new 0 0 797 612" xml:space="preserve">
<g id="Layer_1">
	<g>
		<g>
			<path fill="#231F20" d="M205.042,153.124C220.33,27.14,385.427-9.83,443.639,107.923c2.934,5.933,12.646,8.802,18.115,4.75
				c30.233-22.4,72.165,5.852,78.435,36.507c1.528,7.477,9.636,10.406,16.287,9.248c70.249-12.234,105.85,50.574,103.696,111.491
				c-1.636,46.302-31.358,79.169-75.929,91.11c-64.9,17.389-144.564,6.153-211.263,4.25c-63.08-1.8-148.715,9.757-193.875-40.995
				c-26.234-29.482-43.604-62.375-38.864-103.529c4.699-40.8,23.218-39.55,59.558-47.542c16.636-3.658,9.596-29.193-7.04-25.535
				c-29.456,6.477-64.615,5.499-77.387,36.54c-13.05,31.716-4.344,101.384,15.845,130.55c18.441,26.642,53.954,61.442,86.357,68.693
				c73.171,16.374,160.359,9.121,234.985,9.756c82.15,0.699,212.578,9.943,232.111-96.889
				c16.812-91.946-34.672-180.948-135.234-163.436c5.43,3.083,10.858,6.166,16.287,9.248
				c-11.007-53.819-66.917-89.687-117.334-52.333c6.038,1.583,12.077,3.167,18.115,4.75
				c-71.073-143.77-269.706-91.726-287.942,58.566C176.513,170.003,203.012,169.855,205.042,153.124L205.042,153.124z"/>
		</g>
		<g>
			<path fill="#231F20" d="M627.605,554.131c14.355,3.621,3.418,24.55-7.817,21.409c-5.956-1.665-8.109-9.301-6.473-14.573
				c2.272-7.318,9.332-5.621,15.594-5.106c16.984,1.396,16.892-25.092,0-26.48c-20.646-1.698-38.473,7.121-42.021,29.118
				c-3.073,19.05,8.947,39.318,28.491,43.142c19.062,3.729,37.18-9.981,43.611-27.361c7.195-19.442-4.348-40.639-24.346-45.683
				C618.116,524.427,611.064,549.959,627.605,554.131L627.605,554.131z"/>
		</g>
		<g>
			<path fill="#231F20" d="M431.994,516.474c3.531,0.48,8.855,7.44,7.277,11.179c-1.726,4.087-7.885,5.17-11.541,3.966
				c-3.104-1.022-7.562-4.945-6.327-8.844c1.322-4.174,9.22-3.479,12.639-3.109c7.121,0.768,13.24-6.636,13.24-13.241
				c0-7.797-6.099-12.47-13.24-13.24c-17.81-1.92-36.959,8.215-38.865,27.334c-1.734,17.397,10.892,33.713,27.958,37.238
				c17.222,3.558,36.793-6.018,41.913-23.504c4.73-16.158-8.355-40.911-26.015-43.312c-7.076-0.963-14.215,1.704-16.287,9.247
				C421.05,506.36,424.861,515.504,431.994,516.474L431.994,516.474z"/>
		</g>
		<g>
			<path fill="#231F20" d="M323.245,456.17c4.323,1.024,14.502,3.765,13.963,10.038c-0.386,4.494-11.147,4.607-14.369,3.385
				c1.947,1.136,3.895,2.271,5.842,3.405c-4.632-3.81-7.675-14.051-0.117-17.055c6.641-2.641,11.292-8.852,9.248-16.287
				c-1.736-6.317-9.604-11.904-16.287-9.248c-16.315,6.485-27.201,22.278-23.166,40.034c1.646,7.241,5.345,15.423,10.771,20.601
				c7.094,6.769,17.916,6.517,26.945,4.871c15.602-2.844,28.82-15.324,27.426-31.997c-1.495-17.889-16.853-29.406-33.216-33.282
				C313.714,426.711,306.642,452.238,323.245,456.17L323.245,456.17z"/>
		</g>
		<g>
			<path fill="#231F20" d="M181.233,556.19c6.435,1.767,15.071,9.254,8.229,15.453c-3.929,3.559-16.795,2.617-21.953,1.635
				c-4.674-0.89-7.671-7.059-4.893-11.701c2.469-4.123,14.175-1.258,19.119-1.699c16.84-1.502,12.611-36.773-4.387-35.257
				c-10.229,0.912-16.193,7.123-25.87,11.794c-8.98,4.334-13.807,12.538-15.004,22.225c-2.544,20.601,6.581,37.933,28.081,40.741
				c18.66,2.438,42.526,0.34,51.271-19.131c9.605-21.382-6.846-43.908-27.555-49.595
				C171.816,526.138,164.794,551.677,181.233,556.19L181.233,556.19z"/>
		</g>
		<g>
			<path fill="#231F20" d="M255.29,382.698c0.014,16.814,0.028,33.629,0.042,50.443c0.009,10.889,3.054,28.819-0.576,38.911
				c-3.868,10.755-26.896,25.872-35.307,33.955c-9.589,9.216-19.158,18.433-28.982,27.399
				c-12.615,11.513,6.154,30.198,18.725,18.725c12.837-11.717,25.283-23.842,37.81-35.889c10.039-9.654,26.006-20.023,32.294-32.899
				c4.492-9.198,2.542-21.433,2.533-31.285c-0.019-23.12-0.039-46.24-0.058-69.36C281.756,365.659,255.275,365.63,255.29,382.698
				L255.29,382.698z"/>
		</g>
		<g>
			<path fill="#231F20" d="M317.371,383.435c-0.259,19.615-0.519,39.23-0.778,58.846c-0.226,17.046,26.255,17.054,26.481,0
				c0.259-19.615,0.519-39.23,0.778-58.846C344.077,366.389,317.597,366.38,317.371,383.435L317.371,383.435z"/>
		</g>
		<g>
			<path fill="#231F20" d="M420.228,380.49c-0.349,38.003-0.698,76.007-1.048,114.011c-0.156,17.045,26.324,17.06,26.481,0
				c0.349-38.004,0.698-76.008,1.047-114.011C446.865,363.445,420.385,363.431,420.228,380.49L420.228,380.49z"/>
		</g>
		<g>
			<path fill="#231F20" d="M516.948,387.855c-0.191,20.805-0.382,41.61-0.573,62.415c-0.104,11.386-3.02,27.025,3.246,37.398
				c6.929,11.47,25.494,20.352,34.914,28.43c15.312,13.131,29.186,27.486,42.437,42.677c11.223,12.867,29.887-5.927,18.725-18.725
				c-17.86-20.477-38.034-36.847-57.778-55.216c-24.392-22.693-14.778-65.465-14.489-96.979
				C543.586,370.811,517.104,370.796,516.948,387.855L516.948,387.855z"/>
		</g>
	</g>
</g>
<g id="Layer_2">
	<g>
		<g>
			<path d="M381.333,126.668c19.563,6.503,31.344,23.612,51.61,27.832c19.008,3.958,45.231-4.122,64.515-4.852
				c-2.021-2.021-4.042-4.042-6.063-6.063c0.386,40.629-12.962,69.672-34.487,104.86c-10.526,17.207-37.714,31.431-51.673,45.944
				c-8.811,9.16-9.772,46.586-24.059,44.302c-13.095-2.092-24.393-34.84-33.176-44.62c-11.828-13.167-28.836-17.866-37.194-33.467
				c-19.38-36.174-27.426-76.484-26.713-117.297c-2.021,2.021-4.042,4.042-6.063,6.063c79.327,13.129,77.162,3.109,107.888-23.742
				c5.888-5.145-2.719-13.692-8.575-8.575c-27.88,24.364-64.877,20.446-99.313,20.191c-3.32-0.024-14.973-5.009-15.03-1.745
				c-0.796,45.536,18.134,98.45,41.141,138.042c10.69,18.396,24.022,35.469,39.339,50.237c9.756,9.405,27.357,28.918,42.061,28.946
				C398.319,352.751,405.983,313.617,414,306c16.339-15.523,38.901-11.517,52.004-29.89c8.671-12.16,37.517-132.518,37.517-132.524
				c-0.028-3.185-2.753-6.188-6.062-6.063c-21.081,0.797-42.082,1.534-62.668-4.106c-17.191-4.709-33.333-12.824-50.233-18.441
				C377.135,112.507,373.951,124.214,381.333,126.668L381.333,126.668z"/>
		</g>
		<g>
			<path d="M273.693,170.644c27.521,26.426,54.833,72.003,84.103,96.464c24.648,20.598,19.446,12.679,47.438,28.614
				c6.793,3.866,20.268-2.577,13.479-6.442c-15.624-8.894-30.352-13.253-42.286-26.258c-11.674-12.719-19.341-16.98-32.573-28.009
				c-27.085-22.574-34.332-65.955-59.761-90.373C278.462,139.235,268.05,165.227,273.693,170.644L273.693,170.644z"/>
		</g>
	</g>
</g>
</svg>
